<svg width="512" height="512" viewBox="0 0 512 512" fill="none" xmlns="http://www.w3.org/2000/svg">
<g clip-path="url(#clip0_16_68)">
<path d="M405.383 13.334H362.716C356.825 13.334 352.049 18.11 352.049 24.001V159.34C352.058 164.402 355.623 168.76 360.582 169.772L403.249 178.732C403.95 178.884 404.665 178.963 405.382 178.967C411.273 178.967 416.049 174.191 416.049 168.3V24C416.05 18.109 411.274 13.334 405.383 13.334Z" fill="#FFCA28"/>
<path d="M357.127 13.995C355.112 11.87 352.312 10.666 349.383 10.667H306.716C301.035 10.659 296.345 15.106 296.049 20.779L285.382 223.446C285.076 229.329 289.597 234.347 295.48 234.653C295.67 234.663 295.859 234.668 296.049 234.667C296.948 234.676 297.844 234.569 298.716 234.347L341.383 223.68C345.916 222.547 349.185 218.596 349.447 213.931L360.114 21.931C360.257 18.987 359.176 16.114 357.127 13.995Z" fill="#FFB300"/>
<path d="M96.839 76.5868C94.452 74.9128 91.485 74.2878 88.626 74.8588L35.292 85.5258C29.609 86.6068 25.824 92.0198 26.759 97.7288L48.092 225.729C48.944 230.921 53.455 234.716 58.716 234.668H112.049C117.94 234.666 122.714 229.888 122.712 223.997C122.712 223.456 122.67 222.915 122.588 222.38L101.255 83.7118C100.817 80.8338 99.222 78.2598 96.839 76.5868Z" fill="#FFC107"/>
<path d="M479.495 86.464L436.828 65.131C431.559 62.497 425.152 64.633 422.517 69.902C422.516 69.905 422.514 69.907 422.513 69.91L339.974 234.966C337.335 240.233 339.465 246.642 344.732 249.281C346.215 250.024 347.851 250.411 349.51 250.411C350.183 250.409 350.854 250.345 351.515 250.219L434.054 234.496C437.842 233.768 440.942 231.052 442.161 227.392L484.828 99.392C486.517 94.356 484.244 88.845 479.495 86.464Z" fill="#FFC107"/>
<path d="M413.298 138.987L370.631 128.32C364.915 126.896 359.126 130.375 357.702 136.091C357.599 136.503 357.521 136.922 357.468 137.344L346.801 222.677C346.07 228.523 350.217 233.854 356.062 234.584C356.528 234.642 356.998 234.67 357.467 234.666H400.134C405.481 234.72 410.042 230.807 410.801 225.514L421.468 150.847C422.228 145.375 418.682 140.228 413.298 138.987Z" fill="#FFB300"/>
<path d="M131.975 137.344C131.243 131.499 125.91 127.354 120.065 128.086C119.643 128.139 119.225 128.217 118.812 128.32L76.145 138.987C70.838 140.31 67.391 145.434 68.166 150.848L78.833 225.515C79.592 230.808 84.153 234.721 89.5 234.667H132.167C138.058 234.713 142.87 229.974 142.916 224.083C142.92 223.613 142.892 223.144 142.834 222.678L131.975 137.344Z" fill="#FFD54F"/>
<path d="M154.652 22.7422C154.291 19.6952 152.635 16.9512 150.108 15.2112C147.592 13.4602 144.437 12.8912 141.468 13.6542L98.802 24.3202C94.052 25.5052 90.718 29.7712 90.717 34.6672L90.845 68.2672L112.178 206.934C112.978 212.136 117.453 215.977 122.717 215.979H165.384C171.275 216.02 176.084 211.278 176.125 205.387C176.128 204.941 176.103 204.496 176.051 204.054L154.652 22.7422Z" fill="#FFC107"/>
<path d="M239.58 289.259L208.199 109.803C208.199 109.419 208.05 109.056 207.943 108.715L186.61 34.048C184.971 28.39 179.055 25.131 173.397 26.771C172.806 26.942 172.23 27.165 171.677 27.435L129.01 48.768C125.081 50.735 122.761 54.91 123.165 59.285L147.08 321.92C147.613 327.787 152.801 332.111 158.668 331.578C159.753 331.479 160.817 331.215 161.822 330.795L233.182 300.928C237.776 299.01 240.433 294.166 239.58 289.259Z" fill="#FFD54F"/>
<path d="M304.05 21.3341H261.383C255.847 21.3121 251.215 25.5271 250.716 31.0411L225.415 312.385C224.885 318.252 229.211 323.438 235.078 323.968C235.412 323.998 235.746 324.013 236.081 324.011H295.409C301.137 324.016 305.847 319.495 306.076 313.771L314.716 96.4271V32.0001C314.716 26.1091 309.941 21.3341 304.05 21.3341Z" fill="#FFD54F"/>
<path d="M360.476 106.944L296.476 96.2769C293.534 95.8149 290.532 96.587 288.177 98.41C285.827 100.241 284.349 102.972 284.102 105.941L267.442 305.28C266.967 310.915 270.973 315.942 276.573 316.736L328.05 324.075C328.554 324.111 329.06 324.111 329.565 324.075C334.772 324.074 339.218 320.314 340.082 315.179L347.954 268.523V268.267L369.287 118.934C370.082 113.21 366.176 107.895 360.476 106.944Z" fill="#FFC107"/>
<path d="M269.191 3.39184C267.172 1.22684 264.344 -0.00216196 261.383 -0.000161963H218.716C213.305 -0.042162 208.72 3.97484 208.049 9.34384L172.849 291.264C172.195 296.448 175.392 301.342 180.401 302.827L236.977 319.574C237.975 319.863 239.01 320.006 240.049 320.001C245.653 320.016 250.312 315.692 250.716 310.102L272.05 11.4348C272.258 8.47284 271.222 5.55784 269.191 3.39184Z" fill="#FFB300"/>
<path d="M245.383 95.467C245.099 89.785 240.405 85.327 234.716 85.334H192.05C186.159 85.326 181.377 90.095 181.369 95.986C181.369 96.176 181.374 96.366 181.383 96.555L192.05 299.222C192.303 303.895 195.574 307.858 200.114 308.993L242.781 319.66C243.631 319.883 244.505 319.998 245.384 320.001C251.275 320.008 256.057 315.239 256.064 309.348C256.064 309.166 256.06 308.983 256.051 308.801L245.383 95.467Z" fill="#FFCA28"/>
<path d="M461.959 217.6C459.945 214.914 456.783 213.333 453.426 213.333H346.759C340.868 213.333 336.092 218.109 336.092 224C336.092 265.237 302.663 298.667 261.425 298.667H240.092C198.855 298.667 165.425 265.238 165.425 224C165.425 218.109 160.649 213.333 154.758 213.333H48.092C42.201 213.332 37.424 218.107 37.423 223.998C37.423 225.062 37.582 226.119 37.894 227.136L113.905 474.347C120.718 496.782 141.445 512.089 164.892 512H336.54C359.987 512.088 380.713 496.782 387.527 474.347L463.58 227.136C464.595 223.881 463.992 220.337 461.959 217.6Z" fill="#F44336"/>
</g>
<defs>
<clipPath id="clip0_16_68">
<rect width="512.001" height="512.001" fill="white"/>
</clipPath>
</defs>
</svg>
